# Blender 3.6.1
# www.blender.org
mtllib floor.mtl
o Plane001
v -0.697079 -0.290493 1.000000
v -0.348540 -0.290493 1.000000
v -0.348540 -0.290493 0.500000
v -0.697079 -0.290493 0.500000
v 0.000000 -0.290493 1.000000
v 0.000000 -0.290493 0.500000
v 0.348540 -0.290493 1.000000
v 0.348540 -0.290493 0.500000
v 0.697079 -0.290493 1.000000
v 0.697079 -0.290493 0.500000
v -0.348540 -0.290493 0.000000
v -0.697079 -0.290493 0.000000
v 0.000000 -0.290493 0.000000
v 0.348540 -0.290493 0.000000
v 0.697079 -0.290493 0.000000
v -0.348540 -0.290493 -0.500000
v -0.697079 -0.290493 -0.500000
v 0.000000 -0.290493 -0.500000
v 0.348540 -0.290493 -0.500000
v 0.697079 -0.290493 -0.500000
v -0.348540 -0.290493 -1.000000
v -0.697079 -0.290493 -1.000000
v 0.000000 -0.290493 -1.000000
v 0.348540 -0.290493 -1.000000
v 0.697079 -0.290493 -1.000000
vn -0.0000 1.0000 -0.0000
vt 0.151460 0.250000
vt 0.151460 0.000000
vt 0.325730 0.000000
vt 0.325730 0.250000
vt 0.500000 0.000000
vt 0.500000 0.250000
vt 0.674270 0.000000
vt 0.674270 0.250000
vt 0.848540 0.000000
vt 0.848540 0.250000
vt 0.151460 0.500000
vt 0.325730 0.500000
vt 0.500000 0.500000
vt 0.674270 0.500000
vt 0.848540 0.500000
vt 0.151460 0.750000
vt 0.325730 0.750000
vt 0.500000 0.750000
vt 0.674270 0.750000
vt 0.848540 0.750000
vt 0.151460 1.000000
vt 0.325730 1.000000
vt 0.500000 1.000000
vt 0.674270 1.000000
vt 0.848540 1.000000
s 0
usemtl floor
f 4/1/1 1/2/1 2/3/1
f 2/3/1 3/4/1 4/1/1
f 3/4/1 2/3/1 5/5/1
f 5/5/1 6/6/1 3/4/1
f 6/6/1 5/5/1 7/7/1
f 7/7/1 8/8/1 6/6/1
f 8/8/1 7/7/1 9/9/1
f 9/9/1 10/10/1 8/8/1
f 12/11/1 4/1/1 3/4/1
f 3/4/1 11/12/1 12/11/1
f 11/12/1 3/4/1 6/6/1
f 6/6/1 13/13/1 11/12/1
f 13/13/1 6/6/1 8/8/1
f 8/8/1 14/14/1 13/13/1
f 14/14/1 8/8/1 10/10/1
f 10/10/1 15/15/1 14/14/1
f 17/16/1 12/11/1 11/12/1
f 11/12/1 16/17/1 17/16/1
f 16/17/1 11/12/1 13/13/1
f 13/13/1 18/18/1 16/17/1
f 18/18/1 13/13/1 14/14/1
f 14/14/1 19/19/1 18/18/1
f 19/19/1 14/14/1 15/15/1
f 15/15/1 20/20/1 19/19/1
f 22/21/1 17/16/1 16/17/1
f 16/17/1 21/22/1 22/21/1
f 21/22/1 16/17/1 18/18/1
f 18/18/1 23/23/1 21/22/1
f 23/23/1 18/18/1 19/19/1
f 19/19/1 24/24/1 23/23/1
f 24/24/1 19/19/1 20/20/1
f 20/20/1 25/25/1 24/24/1
